<?xml version="1.0" standalone="no"?>
<!DOCTYPE svg PUBLIC "-//W3C//DTD SVG 20010904//EN"
 "http://www.w3.org/TR/2001/REC-SVG-20010904/DTD/svg10.dtd">
<svg version="1.0" xmlns="http://www.w3.org/2000/svg"
 width="1533.000000pt" height="1600.000000pt" viewBox="0 0 1533.000000 1600.000000"
 preserveAspectRatio="xMidYMid meet">

<g transform="translate(0.000000,1600.000000) scale(0.100000,-0.100000)"
fill="#000000" stroke="none">
<path d="M7400 15705 c-14 -2 -119 -9 -235 -15 -115 -6 -277 -20 -360 -30 -82
-11 -175 -22 -205 -25 -57 -6 -207 -31 -395 -66 -356 -66 -811 -192 -1155
-319 -47 -18 -105 -39 -130 -47 -25 -9 -49 -19 -55 -23 -5 -4 -21 -11 -35 -15
-29 -9 -205 -83 -305 -128 -111 -50 -493 -242 -570 -286 -38 -23 -81 -46 -95
-53 -27 -14 -132 -76 -190 -113 -116 -73 -155 -98 -245 -158 -436 -289 -776
-568 -1156 -947 -231 -231 -345 -353 -433 -462 l-38 -48 -214 0 -214 0 0 -276
0 -276 -103 -157 c-57 -86 -116 -178 -133 -205 -16 -26 -33 -56 -39 -65 -5 -9
-26 -43 -45 -76 -19 -33 -39 -68 -45 -77 -54 -90 -107 -192 -215 -413 -110
-223 -171 -360 -273 -610 -50 -124 -172 -488 -216 -645 -12 -41 -30 -104 -41
-140 -10 -36 -21 -78 -24 -95 -3 -16 -14 -66 -25 -110 -60 -242 -134 -643
-151 -822 -5 -54 -14 -132 -20 -173 -15 -104 -40 -601 -39 -795 0 -212 23
-655 43 -830 46 -391 137 -874 220 -1165 8 -25 24 -81 36 -125 127 -449 299
-886 526 -1337 84 -166 110 -215 184 -343 67 -117 182 -303 247 -401 43 -63
86 -128 95 -142 17 -25 18 -124 18 -1674 l0 -1648 6295 0 6295 0 0 1648 c0
1550 1 1649 18 1674 9 14 52 79 95 142 42 64 112 174 154 244 77 129 83 138
147 250 99 174 297 590 396 832 10 25 28 70 41 100 96 236 232 672 303 970 70
293 138 663 156 847 5 54 14 132 20 173 15 105 40 593 40 790 0 213 -24 665
-45 845 -43 375 -131 839 -215 1140 -135 483 -257 822 -437 1215 -76 166 -276
553 -299 581 -8 8 -14 18 -14 21 0 5 -61 112 -90 158 -5 8 -17 28 -26 45 -10
16 -68 107 -131 202 l-113 171 0 276 0 276 -212 0 -213 0 -90 107 c-125 149
-604 627 -755 753 -69 58 -139 118 -157 133 -191 172 -852 629 -1063 734 -14
7 -38 21 -55 31 -77 47 -534 282 -549 282 -3 0 -33 13 -68 29 -81 39 -277 121
-286 121 -4 0 -18 6 -33 13 -14 8 -45 21 -70 29 -24 9 -82 30 -129 48 -93 34
-329 114 -400 134 -141 41 -415 114 -460 122 -14 3 -50 11 -80 19 -109 26
-528 103 -603 109 -27 3 -121 14 -210 25 -89 11 -236 25 -327 31 -160 11 -749
22 -800 15z m725 -69 c311 -18 669 -60 905 -107 52 -10 111 -21 130 -24 63
-10 377 -83 480 -112 183 -51 463 -138 550 -170 36 -14 88 -33 115 -43 74 -27
286 -110 320 -125 316 -138 639 -301 893 -450 150 -88 251 -153 506 -325 74
-50 371 -274 435 -329 30 -25 100 -84 155 -130 210 -176 666 -631 821 -818
l27 -33 -5797 0 -5797 0 27 33 c155 187 614 645 820 817 55 45 123 102 150
126 61 52 368 284 449 339 165 112 327 218 381 250 33 19 78 46 100 60 22 13
78 45 125 71 47 26 101 56 120 67 260 146 661 328 985 447 28 10 79 29 115 43
143 53 513 163 710 210 766 183 1480 247 2275 203z m-6757 -9734 l-3 -2137
-33 58 c-19 31 -39 63 -46 70 -6 6 -27 37 -44 67 -18 30 -51 84 -74 120 -196
313 -439 800 -590 1185 -96 245 -216 618 -277 860 -138 544 -209 1013 -232
1530 -13 284 -4 852 16 1040 8 77 17 169 21 205 25 300 144 904 240 1225 162
544 313 926 535 1360 128 250 220 413 308 551 49 76 84 132 141 223 l35 56 3
-2138 c1 -1175 1 -3099 0 -4275z m12660 6311 c140 -218 167 -261 221 -356 94
-164 100 -176 195 -362 118 -231 178 -363 281 -615 27 -65 33 -81 79 -200 78
-203 213 -653 265 -885 12 -49 30 -129 41 -177 11 -48 22 -104 25 -125 3 -21
14 -83 24 -138 27 -141 57 -365 83 -610 20 -188 22 -263 22 -705 0 -442 -2
-518 -22 -705 -48 -450 -97 -741 -189 -1110 -19 -77 -38 -156 -43 -175 -16
-75 -63 -226 -130 -425 -23 -66 -43 -127 -45 -135 -2 -8 -17 -51 -34 -95 -170
-453 -355 -838 -600 -1248 -42 -70 -94 -156 -116 -191 -22 -35 -53 -84 -70
-110 -16 -27 -35 -55 -42 -64 -10 -13 -12 895 -13 4256 0 2349 1 4272 3 4272
1 0 31 -44 65 -97z m-7080 -2810 l-3 -97 -85 -18 c-276 -58 -419 -103 -505
-160 -89 -59 -122 -148 -111 -302 8 -122 46 -247 176 -586 40 -102 80 -207 90
-235 27 -74 100 -273 120 -330 10 -27 33 -88 50 -135 18 -47 36 -96 40 -110 5
-14 34 -92 65 -175 31 -82 60 -163 65 -180 4 -16 27 -79 50 -140 46 -120 67
-179 100 -270 12 -33 31 -82 41 -110 57 -153 72 -195 90 -242 10 -29 28 -79
40 -110 12 -32 32 -85 44 -118 13 -33 33 -87 45 -120 12 -33 28 -76 35 -95 15
-37 50 -130 89 -232 62 -165 109 -288 131 -343 13 -33 44 -114 70 -180 25 -66
53 -134 60 -152 8 -17 15 -35 15 -40 0 -5 11 -33 25 -61 14 -29 25 -55 25 -58
0 -7 16 -47 125 -329 96 -245 106 -278 100 -304 -6 -24 -47 -124 -80 -196 -8
-16 -37 -86 -65 -155 -62 -151 -61 -148 -99 -232 l-30 -68 -110 0 -109 0 -16
43 c-8 23 -29 83 -45 132 -17 50 -53 155 -81 235 -28 80 -57 163 -65 185 -7
22 -27 78 -45 125 -17 47 -37 103 -45 125 -7 22 -34 99 -60 170 -26 72 -64
177 -85 235 -21 58 -50 137 -65 175 -41 108 -60 161 -103 280 -22 61 -45 121
-50 135 -12 26 -41 102 -90 235 -16 44 -33 89 -37 100 -31 78 -95 248 -104
276 -5 15 -16 42 -24 60 -8 19 -27 68 -42 109 -16 41 -37 94 -47 117 -10 23
-18 45 -18 49 0 8 -44 123 -66 171 -8 17 -14 34 -14 38 0 4 -11 33 -24 64 -13
31 -43 106 -66 166 -51 135 -86 226 -110 285 -11 25 -31 77 -45 115 -15 39
-40 104 -57 145 -17 41 -37 93 -45 115 -7 22 -18 49 -23 60 -5 11 -30 74 -55
140 -115 297 -183 473 -205 525 -181 430 -258 593 -344 725 -162 247 -370 354
-836 431 -58 9 -111 19 -117 21 -9 4 -13 33 -13 99 l0 94 1275 0 1276 0 -3
-97z m4200 0 l-3 -97 -95 -18 c-154 -30 -311 -69 -365 -90 -180 -72 -252 -116
-354 -212 -96 -92 -254 -314 -351 -493 -11 -21 -24 -45 -30 -53 -5 -8 -27 -46
-48 -85 -37 -66 -55 -99 -155 -285 -53 -99 -388 -770 -467 -935 -34 -71 -84
-175 -110 -230 -26 -55 -66 -138 -88 -185 -22 -47 -70 -147 -106 -223 -36 -76
-66 -140 -66 -143 0 -3 -61 -135 -110 -239 -46 -96 -110 -236 -110 -241 0 -4
-23 -54 -100 -219 -22 -47 -71 -155 -93 -205 -16 -38 -60 -136 -82 -185 -7
-16 -24 -54 -36 -82 -13 -29 -26 -53 -30 -53 -3 0 -22 44 -43 98 -37 98 -65
168 -107 274 l-23 58 59 127 c102 223 117 257 136 301 11 23 28 61 38 85 11
23 28 62 39 87 11 25 63 144 116 265 88 200 158 360 191 440 37 87 79 185 96
222 10 24 19 45 19 48 0 2 18 48 41 102 114 275 126 303 154 378 15 39 33 84
40 100 6 17 21 55 33 85 11 30 33 87 47 125 15 39 35 93 45 120 10 28 29 79
42 115 25 67 84 251 134 420 25 83 28 111 28 225 0 121 -2 134 -26 180 -47 89
-145 166 -273 214 -64 23 -206 61 -271 71 -38 6 -85 15 -104 19 -19 5 -47 12
-62 15 l-28 6 0 95 0 95 1240 0 1241 0 -3 -97z m-9522 -6083 c181 -227 257
-317 357 -425 116 -124 370 -381 497 -501 99 -94 375 -328 471 -400 36 -27
111 -83 165 -124 103 -78 133 -99 306 -214 125 -84 183 -121 268 -172 36 -21
75 -44 85 -51 196 -119 519 -284 775 -397 233 -104 225 -100 303 -130 37 -14
95 -37 130 -50 60 -24 361 -124 497 -166 317 -98 830 -208 1155 -249 41 -5
-1014 -9 -2567 -10 l-2638 -1 0 1577 0 1577 52 -75 c29 -41 94 -126 144 -189z
m12274 -1320 l0 -1570 -2637 1 c-1554 1 -2609 5 -2568 10 323 41 825 148 1160
250 105 32 428 140 493 165 34 13 92 36 130 50 37 14 81 32 97 39 17 8 80 35
140 60 378 161 824 404 1193 651 173 115 203 136 306 214 54 41 129 98 166
125 323 242 868 766 1128 1085 47 58 91 110 97 115 16 14 182 228 239 308 26
37 50 67 52 67 2 0 4 -706 4 -1570z"/>
</g>
</svg>
