<svg width="16" height="93" viewBox="0 0 16 93" fill="none" xmlns="http://www.w3.org/2000/svg">
<path d="M7.29289 92.7071C7.68342 93.0976 8.31658 93.0976 8.70711 92.7071L15.0711 86.3431C15.4616 85.9526 15.4616 85.3195 15.0711 84.9289C14.6805 84.5384 14.0474 84.5384 13.6569 84.9289L8 90.5858L2.34314 84.9289C1.95262 84.5384 1.31946 84.5384 0.928931 84.9289C0.538407 85.3195 0.538407 85.9526 0.928931 86.3431L7.29289 92.7071ZM7 60L7 92L9 92L9 60L7 60Z" fill="black"/>
<line x1="8" y1="52" x2="8" y2="24" stroke="black" stroke-width="2"/>
<line x1="8" y1="52" x2="8" y2="24" stroke="black" stroke-width="2"/>
<line x1="8" y1="16" x2="8" y2="4.37114e-08" stroke="black" stroke-width="2"/>
</svg>
